<svg width="210" height="60" viewBox="0 0 210 60" fill="none" xmlns="http://www.w3.org/2000/svg">
<path fill-rule="evenodd" clip-rule="evenodd" d="M27.6555 21.4051C33.1997 20.0013 37.8448 19.7394 43.0199 19.4866C39.0972 14.9528 32.5991 12.8538 26.1613 14.6281C19.8544 16.3663 15.3044 21.3536 14 27.1442C18.1175 24.7478 22.1112 22.8089 27.6555 21.4051ZM58.9291 25.6391C57.8508 21.6026 43.907 18.9316 28.4173 23.0943C12.9276 27.257 1.99491 36.6771 3.07331 40.7136C3.83295 43.557 10.6036 44.3466 20.0241 43.11C7.09268 41.5487 23.3591 34.8042 31 32.7507C40.0836 30.3096 56.1805 28.0047 49.3569 34.5184C55.8337 31.3491 59.5691 28.0345 58.9291 25.6391ZM39.4348 23.7081C38.0373 23.7081 36.9043 24.8413 36.9043 26.2392C36.9043 27.637 38.0373 28.7702 39.4348 28.7702C40.8324 28.7702 41.9654 27.637 41.9654 26.2392C41.9654 24.8413 40.8324 23.7081 39.4348 23.7081ZM27.3445 28.0671C27.3445 26.6693 28.4774 25.5361 29.875 25.5361C31.2726 25.5361 32.4056 26.6693 32.4056 28.0671C32.4056 29.465 31.2726 30.5982 29.875 30.5982C28.4774 30.5982 27.3445 29.465 27.3445 28.0671ZM18.347 30.8794C18.347 29.4815 19.48 28.3484 20.8775 28.3484C22.2751 28.3484 23.4081 29.4815 23.4081 30.8794C23.4081 32.2773 22.2751 33.4104 20.8775 33.4104C19.48 33.4104 18.347 32.2773 18.347 30.8794ZM30.5445 34.5067C36.4633 32.8548 46.2347 31.2806 45.9957 33.9601L45.9949 33.9605L45.9954 33.9629C45.99 34.0224 45.9796 34.084 45.9641 34.1477C45.6455 35.8194 44.1987 38.0846 42.8088 39.7264L43.5363 41.0729C44.0846 42.0828 44.8524 43.4899 45.8396 45.2942C45.9156 45.4028 45.9403 45.5413 45.9066 45.671C45.8554 45.8687 45.6904 45.9991 45.5024 46C45.473 46 45.4364 45.9971 45.4066 45.9907L45.3821 45.9846L37.6404 43.8581C36.5575 44.4242 35.397 44.8853 34.1701 45.2234C28.4684 46.7949 22.375 45.3468 18.7335 41.8251C16.2595 39.7906 25.6715 35.8667 30.5445 34.5067Z" fill="#00E1DF"/>
<path fill-rule="evenodd" clip-rule="evenodd" d="M78.4889 44C86.56 44 92 38.3281 92 29.98C92 21.6719 86.6311 16 78.7378 16H68V44H78.4889ZM104 44V16H96V44H104ZM123.614 22.0314V44H116.306V22.0314H108V16H132V22.0314H123.614ZM78.9156 38.0884H74.5067V21.9515H78.5956C82.5422 21.9515 85.3511 25.2268 85.3511 30.0599C85.3511 34.8531 82.6844 38.0884 78.9156 38.0884ZM158 35.5413C158 41.1413 153.002 44 146.813 44C142.172 44 137.332 42.3161 134 39.614L136.817 34.014C139.673 36.442 143.997 38.165 146.893 38.165C149.035 38.165 150.383 37.3818 150.383 35.9329C150.383 34.0258 147.932 33.3714 145.036 32.5981C140.854 31.4818 135.745 30.1179 135.745 24.3804C135.745 19.2503 140.149 16 146.853 16C150.939 16 155.064 17.2531 157.96 19.0937L155.223 24.772C152.288 23.1273 148.559 21.835 146.258 21.835C144.512 21.835 143.362 22.4615 143.362 23.7147C143.362 25.5509 145.754 26.2226 148.604 27.0229C152.804 28.2026 158 29.6618 158 35.5413ZM167.475 39.0471L165.723 44H159L169.764 16H176.487L187 44H180.027L178.31 39.0471H167.475ZM169.442 33.4551H176.379L172.946 23.4693L169.442 33.4551ZM199.793 35.0528V44H192.409V35.2525L182 16H189.383L196.081 28.0228L202.617 16H210L199.793 35.0528Z" fill="#333333"/>
</svg>
