<?xml version="1.0" encoding="UTF-8" standalone="no"?> 
<!DOCTYPE svg PUBLIC "-//W3C//DTD SVG 1.1//EN" "http://www.w3.org/Graphics/SVG/1.1/DTD/svg11.dtd">
<svg style="fill-rule:nonzero;clip-rule:evenodd;stroke-linecap:round;stroke-linejoin:round;" height="100%" version="1.1" viewBox="0 0 1017.7 1036.65" width="100%" xmlns:xlink="http://www.w3.org/1999/xlink" xmlns:vectornator="http://vectornator.io" xml:space="preserve" xmlns="http://www.w3.org/2000/svg">
<g id="Layer 1">
	<path stroke-linecap="round" fill="none" stroke-linejoin="round" stroke="#FFFFFF" stroke-width="24.4412" d="M50.9012+510.139C50.9012+255.351+257.448+48.8041+512.236+48.8041C767.024+48.8041+973.571+255.351+973.571+510.139C973.571+764.927+767.024+971.474+512.236+971.474C257.448+971.474+50.9012+764.927+50.9012+510.139Z" opacity="1"/>
</g>
<g id="Layer 2">
	<path stroke-linecap="round" opacity="1" d="M109.949+305.545C110.21+306.16+110.432+306.646+110.535+306.909C111.73+309.977+113.742+312.396+115.345+315.139C118.515+320.562+119.139+328.053+121.759+333.657C128.475+348.018+150.132+366.307+161.848+372.749C202.278+394.982+229.776+378.737+264.474+350.117C275.23+341.245+286.634+333.966+296.544+323.369C309.091+309.953+317.604+288.831+327.011+271.932C334.174+259.066+342.334+244.956+347.857+230.782C355.473+211.24+357.532+177.515+352.668+156.713C347.018+132.546+327.359+111.448+307.769+111.448C301.276+111.448+295.21+111.336+289.105+112.881" stroke="#FFFFFF" stroke-linejoin="round" fill="none" stroke-width="24.4412"/>
	<path d="M289.506+114.849C290.916+114.394+292.311+113.834+293.337+113.505" stroke-linejoin="round" fill="none" stroke-linecap="round" opacity="1" stroke="#FFFFFF" stroke-width="24.4412"/>
	<path d="M72.2068+644.174C75.0993+647.196+79.0138+651.628+82.6257+653.245C88.0819+655.688+108.724+653.245+115.619+653.245C122.267+653.245+129.883+654.226+136.457+653.245C142.765+652.304+149.235+649.124+155.558+647.802C173.035+644.151+191.258+641.074+207.653+633.289C221.648+626.642+234.769+619.036+249.328+613.332C261.128+608.709+276.965+604.363+287.531+597.004C290.936+594.632+293.045+590.64+296.213+587.933C314.762+572.077+335.66+559.538+353.517+542.577C374.107+523.02+390.65+493.524+403.875+468.193C418.846+439.518+424.937+407.399+436.868+377.481C443.164+361.696+450.475+342.493+464.652+332.125C472.964+326.046+483.431+322.315+492.436+317.611C519.185+303.638+546.525+293.309+574.051+281.326C584.848+276.626+593.579+269.273+603.571+263.184C618.731+253.944+635.278+247.035+650.456+237.784C661.288+231.183+667.029+222.298+676.503+214.199C692.909+200.175+710.883+187.397+725.125+170.658C738.255+155.225+747.603+136.388+756.381+118.045" stroke-linejoin="round" stroke-linecap="round" fill="none" stroke="#FFFFFF" opacity="1" stroke-width="24.4412"/>
	<path stroke-linejoin="round" stroke-linecap="round" stroke="#FFFFFF" opacity="1" d="M140.986+772.067C151.171+772.067+158.994+765.777+168.702+763.11C183.305+759.098+197.704+756.951+211.092+748.778C221.563+742.386+227.895+728.46+237.178+720.114C252.271+706.545+270.996+697.854+286.089+684.284C314.189+659.021+343.684+629.151+379.021+616.208C398.382+609.116+420.777+609.042+440.975+609.042C445.866+609.042+450.852+607.988+455.648+609.042C458.518+609.672+460.977+611.778+463.8+612.625C478.213+616.944+494.698+619.961+509.451+621.582C574.256+628.703+646.792+608.613+693.683+557.088C710.998+538.063+713.62+522.744+719.769+497.969C728.49+462.831+732.006+425.751+745.855+392.271C751.012+379.804+759.02+370.108+767.05+360.024C774.373+350.828+779.316+338.991+788.245+331.36C798.954+322.208+811.137+316.005+822.483+308.071C829.941+302.856+836.144+295.33+843.678+290.156C847.393+287.604+851.669+285.997+855.09+282.99C858.808+279.722+862.454+274.91+866.503+272.241C868.095+271.191+873.005+270.471+874.655+268.658C877.77+265.236+878.369+262.139+882.807+259.7" stroke-width="24.4412" fill="none"/>
	<path stroke-linejoin="round" d="M508.634+526.476C520.247+534.034+536.085+531.558+548.434+527.853C555.978+525.59+563.112+524.456+569.999+520.151C587.744+509.061+601.091+485.828+606.968+466.239C614.439+441.335+605.832+415.407+577.701+415.407" fill="none" stroke-linecap="round" stroke="#FFFFFF" stroke-width="24.4412" opacity="1"/>
	<path fill="none" opacity="1" stroke-linejoin="round" stroke-linecap="round" d="M429.055+847.386C424.643+845.199+422.937+839.253+422.126+834.383C419.869+820.843+423.872+806.2+432.908+795.874C437.031+791.162+443.134+784.168+448.312+780.47C463.98+769.278+497.226+769.719+516.087+768.148C535.504+766.529+567.918+765.276+579.241+785.091C586.816+798.346+586.273+813.755+583.862+828.221C583.455+830.663+582.368+833.766+580.76+836.247" stroke="#FFFFFF" stroke-width="24.4412"/>
	<path stroke-linecap="round" stroke-width="24.4412" d="M843.411+541.716C844.286+538.663+842.658+535.242+841.101+532.474C839.286+529.247+834.75+528.626+831.859+526.313C806.913+506.356+793.35+548.587+793.35+567.902C793.35+570.264+791.169+582.554+796.431+583.306C803.52+584.318+809.914+577.814+814.915+574.063C819.022+570.983+823.373+568.202+827.238+564.821C835.942+557.205+840.125+553.191+843.411+541.716Z" opacity="1" fill="none" stroke-linejoin="round" stroke="#FFFFFF"/>
</g>
</svg>
